<svg width="144" height="142" viewBox="0 0 144 142" fill="none" xmlns="http://www.w3.org/2000/svg">
<ellipse cx="72" cy="71" rx="72" ry="71" fill="#FFFCFC"/>
<path d="M110.172 42.75C112.076 42.75 113.688 44.3613 113.688 46.2656V54.4688C113.688 59.7422 110.318 65.1621 104.605 69.2637C99.918 72.6328 94.3516 74.6836 88.4922 75.416C83.8047 83.0332 78.5312 86.1094 78.5312 86.1094V96.6562H85.5625C90.6895 96.6562 94.9375 99.7324 94.9375 104.859V106.617C94.9375 107.643 94.0586 108.375 93.1797 108.375H49.8203C48.7949 108.375 48.0625 107.643 48.0625 106.617V104.859C48.0625 99.7324 52.1641 96.6562 57.4375 96.6562H64.4688V86.1094C64.4688 86.1094 59.0488 83.0332 54.3613 75.416C48.502 74.6836 42.9355 72.6328 38.248 69.2637C32.5352 65.1621 29.3125 59.7422 29.3125 54.4688V46.2656C29.3125 44.3613 30.7773 42.75 32.8281 42.75H48.0625V36.8906C48.0625 34.9863 49.5273 33.375 51.5781 33.375H91.4219C93.3262 33.375 94.9375 34.9863 94.9375 36.8906V42.75H110.172ZM43.8145 61.6465C45.5723 62.9648 47.623 63.9902 49.9668 64.8691C48.9414 61.207 48.209 56.959 48.0625 52.125H38.6875V54.4688C38.6875 56.2266 40.1523 59.1562 43.8145 61.6465ZM104.312 54.4688V52.125H94.791C94.6445 56.959 93.9121 61.207 92.8867 64.8691C95.2305 63.9902 97.2812 62.9648 99.0391 61.6465C101.676 59.8887 104.312 56.959 104.312 54.4688Z" fill="#222232"/>
</svg>
