<svg width="20" height="20" viewBox="0 0 20 20" fill="none" xmlns="http://www.w3.org/2000/svg">
<path d="M10 19.5C12.6522 19.5 15.1957 18.4728 17.0711 16.6443C18.9464 14.8158 20 12.3359 20 9.75C20 7.16414 18.9464 4.68419 17.0711 2.85571C15.1957 1.02723 12.6522 0 10 0C7.34784 0 4.8043 1.02723 2.92893 2.85571C1.05357 4.68419 0 7.16414 0 9.75C0 12.3359 1.05357 14.8158 2.92893 16.6443C4.8043 18.4728 7.34784 19.5 10 19.5ZM7.1875 8.83594H12.8125C13.332 8.83594 13.75 9.24346 13.75 9.75C13.75 10.2565 13.332 10.6641 12.8125 10.6641H7.1875C6.66797 10.6641 6.25 10.2565 6.25 9.75C6.25 9.24346 6.66797 8.83594 7.1875 8.83594Z" fill="#CB2C2C"/>
</svg>
