<svg width="26" height="21" viewBox="0 0 26 21" fill="none" xmlns="http://www.w3.org/2000/svg">
<g clip-path="url(#clip0_292_2065)">
<path d="M3.9 5.25C3.9 3.85761 4.44785 2.52226 5.42304 1.53769C6.39823 0.553123 7.72087 0 9.1 0C10.4791 0 11.8018 0.553123 12.777 1.53769C13.7521 2.52226 14.3 3.85761 14.3 5.25C14.3 6.64239 13.7521 7.97775 12.777 8.96231C11.8018 9.94688 10.4791 10.5 9.1 10.5C7.72087 10.5 6.39823 9.94688 5.42304 8.96231C4.44785 7.97775 3.9 6.64239 3.9 5.25ZM0 19.7818C0 15.7418 3.24187 12.4688 7.24344 12.4688H10.9566C14.9581 12.4688 18.2 15.7418 18.2 19.7818C18.2 20.4545 17.6597 21 16.9934 21H1.20656C0.540313 21 0 20.4545 0 19.7818ZM20.475 12.7969V10.1719H17.875C17.3347 10.1719 16.9 9.73301 16.9 9.1875C16.9 8.64199 17.3347 8.20312 17.875 8.20312H20.475V5.57812C20.475 5.03262 20.9097 4.59375 21.45 4.59375C21.9903 4.59375 22.425 5.03262 22.425 5.57812V8.20312H25.025C25.5653 8.20312 26 8.64199 26 9.1875C26 9.73301 25.5653 10.1719 25.025 10.1719H22.425V12.7969C22.425 13.3424 21.9903 13.7812 21.45 13.7812C20.9097 13.7812 20.475 13.3424 20.475 12.7969Z" fill="#51A331"/>
</g>
<defs>
<clipPath id="clip0_292_2065">
<rect width="26" height="21" fill="white"/>
</clipPath>
</defs>
</svg>
