<svg width="31" height="30" viewBox="0 0 31 30" fill="none" xmlns="http://www.w3.org/2000/svg">
<ellipse cx="15.5" cy="15" rx="15.5" ry="15" fill="#C4C4C4"/>
<ellipse cx="15.5" cy="15" rx="15.5" ry="15" fill="#C4C4C4"/>
<path d="M7.3625 9.09375C7.3625 8.57161 7.55609 8.07085 7.90069 7.70163C8.24529 7.33242 8.71266 7.125 9.2 7.125C9.68734 7.125 10.1547 7.33242 10.4993 7.70163C10.8439 8.07085 11.0375 8.57161 11.0375 9.09375C11.0375 9.6159 10.8439 10.1167 10.4993 10.4859C10.1547 10.8551 9.68734 11.0625 9.2 11.0625C8.71266 11.0625 8.24529 10.8551 7.90069 10.4859C7.55609 10.1167 7.3625 9.6159 7.3625 9.09375ZM7.1 14.6379C6.77187 15.0316 6.575 15.5555 6.575 16.125C6.575 16.6945 6.77187 17.2184 7.1 17.6121V14.6379ZM11.8381 12.9047C10.8636 13.8293 10.25 15.1828 10.25 16.6875C10.25 17.8934 10.6437 19.0008 11.3 19.8691V20.625C11.3 21.2473 10.8308 21.75 10.25 21.75H8.15C7.56922 21.75 7.1 21.2473 7.1 20.625V19.6828C5.85969 19.05 5 17.6965 5 16.125C5 13.9488 6.64391 12.1875 8.675 12.1875H9.725C10.5125 12.1875 11.2409 12.4512 11.8381 12.9012V12.9047ZM19.7 20.625V19.8691C20.3562 19.0008 20.75 17.8934 20.75 16.6875C20.75 15.1828 20.1364 13.8293 19.1619 12.9012C19.7591 12.4512 20.4875 12.1875 21.275 12.1875H22.325C24.3561 12.1875 26 13.9488 26 16.125C26 17.6965 25.1403 19.05 23.9 19.6828V20.625C23.9 21.2473 23.4308 21.75 22.85 21.75H20.75C20.1692 21.75 19.7 21.2473 19.7 20.625ZM19.9625 9.09375C19.9625 8.57161 20.1561 8.07085 20.5007 7.70163C20.8453 7.33242 21.3127 7.125 21.8 7.125C22.2873 7.125 22.7547 7.33242 23.0993 7.70163C23.4439 8.07085 23.6375 8.57161 23.6375 9.09375C23.6375 9.6159 23.4439 10.1167 23.0993 10.4859C22.7547 10.8551 22.2873 11.0625 21.8 11.0625C21.3127 11.0625 20.8453 10.8551 20.5007 10.4859C20.1561 10.1167 19.9625 9.6159 19.9625 9.09375ZM23.9 14.6379V17.6156C24.2281 17.2184 24.425 16.698 24.425 16.1285C24.425 15.559 24.2281 15.0352 23.9 14.6414V14.6379ZM15.5 7.125C16.057 7.125 16.5911 7.36205 16.9849 7.78401C17.3787 8.20597 17.6 8.77826 17.6 9.375C17.6 9.97174 17.3787 10.544 16.9849 10.966C16.5911 11.3879 16.057 11.625 15.5 11.625C14.943 11.625 14.4089 11.3879 14.0151 10.966C13.6212 10.544 13.4 9.97174 13.4 9.375C13.4 8.77826 13.6212 8.20597 14.0151 7.78401C14.4089 7.36205 14.943 7.125 15.5 7.125ZM12.875 16.6875C12.875 17.257 13.0719 17.7773 13.4 18.1746V15.2004C13.0719 15.5977 12.875 16.118 12.875 16.6875ZM17.6 15.2004V18.1781C17.9281 17.7809 18.125 17.2605 18.125 16.691C18.125 16.1215 17.9281 15.5977 17.6 15.2039V15.2004ZM19.7 16.6875C19.7 18.259 18.8403 19.6125 17.6 20.2453V21.75C17.6 22.3723 17.1308 22.875 16.55 22.875H14.45C13.8692 22.875 13.4 22.3723 13.4 21.75V20.2453C12.1597 19.6125 11.3 18.259 11.3 16.6875C11.3 14.5113 12.9439 12.75 14.975 12.75H16.025C18.0561 12.75 19.7 14.5113 19.7 16.6875Z" fill="#222232"/>
</svg>
