<svg width="24" height="17" viewBox="0 0 24 17" fill="none" xmlns="http://www.w3.org/2000/svg">
<path d="M23.5282 9.15117C24.1134 8.6873 24.1134 7.93398 23.5282 7.47012L17.5361 2.72012C16.951 2.25625 16.0007 2.25625 15.4155 2.72012C14.8304 3.18398 14.8304 3.9373 15.4155 4.40117L18.8516 7.125H8.9881C8.1595 7.125 7.49008 7.65566 7.49008 8.3125C7.49008 8.96934 8.1595 9.5 8.9881 9.5H18.8516L15.4155 12.2238C14.8304 12.6877 14.8304 13.441 15.4155 13.9049C16.0007 14.3688 16.951 14.3688 17.5361 13.9049L23.5282 9.15488V9.15117ZM7.49008 2.375C8.31867 2.375 8.9881 1.84434 8.9881 1.1875C8.9881 0.530664 8.31867 0 7.49008 0H4.49405C2.01296 0 0 1.5957 0 3.5625V13.0625C0 15.0293 2.01296 16.625 4.49405 16.625H7.49008C8.31867 16.625 8.9881 16.0943 8.9881 15.4375C8.9881 14.7807 8.31867 14.25 7.49008 14.25H4.49405C3.66546 14.25 2.99603 13.7193 2.99603 13.0625V3.5625C2.99603 2.90566 3.66546 2.375 4.49405 2.375H7.49008Z" fill="#CB2C2C" fill-opacity="0.71"/>
</svg>
