<svg width="132" height="130" viewBox="0 0 132 130" fill="none" xmlns="http://www.w3.org/2000/svg">
<ellipse cx="66" cy="65" rx="66" ry="65" fill="#D9D9D9"/>
<path d="M33.45 47.1595C33.45 45.2028 34.2244 43.3263 35.6028 41.9427C36.9812 40.5591 38.8507 39.7818 40.8 39.7818C42.7493 39.7818 44.6188 40.5591 45.9972 41.9427C47.3756 43.3263 48.15 45.2028 48.15 47.1595C48.15 49.1162 47.3756 50.9927 45.9972 52.3763C44.6188 53.7599 42.7493 54.5372 40.8 54.5372C38.8507 54.5372 36.9812 53.7599 35.6028 52.3763C34.2244 50.9927 33.45 49.1162 33.45 47.1595ZM32.4 67.9355C31.0875 69.411 30.3 71.374 30.3 73.5083C30.3 75.6425 31.0875 77.6055 32.4 79.081V67.9355ZM51.3525 61.4405C47.4544 64.9054 45 69.9775 45 75.6162C45 80.135 46.575 84.2849 49.2 87.539V90.3715C49.2 92.7033 47.3231 94.5873 45 94.5873H36.6C34.2769 94.5873 32.4 92.7033 32.4 90.3715V86.8407C27.4388 84.4693 24 79.3972 24 73.5083C24 65.3533 30.5756 58.753 38.7 58.753H42.9C46.05 58.753 48.9637 59.741 51.3525 61.4274V61.4405ZM82.8 90.3715V87.539C85.425 84.2849 87 80.135 87 75.6162C87 69.9775 84.5456 64.9054 80.6475 61.4274C83.0362 59.741 85.95 58.753 89.1 58.753H93.3C101.424 58.753 108 65.3533 108 73.5083C108 79.3972 104.561 84.4693 99.6 86.8407V90.3715C99.6 92.7033 97.7231 94.5873 95.4 94.5873H87C84.6769 94.5873 82.8 92.7033 82.8 90.3715ZM83.85 47.1595C83.85 45.2028 84.6244 43.3263 86.0028 41.9427C87.3812 40.5591 89.2507 39.7818 91.2 39.7818C93.1493 39.7818 95.0188 40.5591 96.3972 41.9427C97.7756 43.3263 98.55 45.2028 98.55 47.1595C98.55 49.1162 97.7756 50.9927 96.3972 52.3763C95.0188 53.7599 93.1493 54.5372 91.2 54.5372C89.2507 54.5372 87.3812 53.7599 86.0028 52.3763C84.6244 50.9927 83.85 49.1162 83.85 47.1595ZM99.6 67.9355V79.0942C100.912 77.6055 101.7 75.6557 101.7 73.5214C101.7 71.3872 100.912 69.4242 99.6 67.9487V67.9355ZM66 39.7818C68.2278 39.7818 70.3644 40.6702 71.9397 42.2514C73.515 43.8326 74.4 45.9772 74.4 48.2134C74.4 50.4496 73.515 52.5943 71.9397 54.1755C70.3644 55.7567 68.2278 56.6451 66 56.6451C63.7722 56.6451 61.6356 55.7567 60.0603 54.1755C58.485 52.5943 57.6 50.4496 57.6 48.2134C57.6 45.9772 58.485 43.8326 60.0603 42.2514C61.6356 40.6702 63.7722 39.7818 66 39.7818ZM55.5 75.6162C55.5 77.7504 56.2875 79.7002 57.6 81.1889V70.0434C56.2875 71.5321 55.5 73.4819 55.5 75.6162ZM74.4 70.0434V81.2021C75.7125 79.7134 76.5 77.7636 76.5 75.6293C76.5 73.4951 75.7125 71.5321 74.4 70.0566V70.0434ZM82.8 75.6162C82.8 81.5051 79.3612 86.5772 74.4 88.9486V94.5873C74.4 96.9191 72.5231 98.8031 70.2 98.8031H61.8C59.4769 98.8031 57.6 96.9191 57.6 94.5873V88.9486C52.6387 86.5772 49.2 81.5051 49.2 75.6162C49.2 67.4612 55.7756 60.8609 63.9 60.8609H68.1C76.2244 60.8609 82.8 67.4612 82.8 75.6162Z" fill="#222232"/>
</svg>
